<svg
  xmlns="http://www.w3.org/2000/svg"
  viewBox="4185.76 659.32 159.39 43.68"
  className="w-10 h-auto text-primary fill-current"
>
  <g>
    <polygon
      className="fill-current"
      points="4185.76 702.91 4191.24 702.91 4196.4 686.34 4202.68 686.34 4200.8 680.82 4192.84 680.82 4185.76 702.91"
    />
    <polygon
      className="fill-current"
      points="4199.49 659.98 4204.72 659.98 4218.46 702.91 4212.77 702.91 4199.49 659.98"
    />
  </g>
  <polyline
    className="fill-current"
    points="4228.85 659.89 4235.26 659.89 4235.32 697.37 4261.04 697.37 4261.04 702.78 4228.85 703"
  />
  <polygon
    className="fill-current"
    points="4302.08 660.04 4271.44 660.04 4271.44 702.96 4303.1 702.96 4303.1 697.51 4277.9 697.51 4277.9 683.39 4300.61 683.39 4300.61 678.13 4277.9 678.13 4277.9 665.48 4302.08 665.48 4302.08 660.04"
  />
  <g>
    <polygon
      className="fill-current"
      points="4313.49 659.32 4320.78 659.32 4345.15 702.32 4338.24 702.14 4330.06 687.89 4323.53 702.14 4315.44 702.14 4326.06 682.55 4313.49 659.32"
    />
    <rect className="fill-current" x="4336.6" y="659.5" width="7.7" height="7.98" />
  </g>
</svg>
